<svg xmlns="http://www.w3.org/2000/svg" viewBox="0 0 32 32" width="32" height="32" fill="none">
  <!-- Dark rounded square background -->
  <rect width="32" height="32" rx="6" fill="#161616"/>
  <!-- Red accent bar on left -->
  <rect x="4" y="8" width="2.5" height="16" rx="1.25" fill="#f34749"/>
  <!-- Bold "B" letterform path -->
  <path d="M11 8h6.8c1.5 0 2.6.4 3.4 1.1.8.7 1.2 1.6 1.2 2.8 0 .9-.3 1.6-.8 2.2-.5.6-1.1.9-1.7 1v.1c.9.2 1.6.6 2.1 1.2.5.7.8 1.5.8 2.5 0 1.3-.5 2.4-1.4 3.1-.9.7-2.1 1.1-3.7 1.1H11V8zm2.8 6.2h4.2c.8 0 1.4-.2 1.8-.6.4-.4.6-.9.6-1.5s-.2-1.1-.6-1.5c-.4-.3-1-.5-1.8-.5h-4.2v4.1zm0 2.2v4.7h4.6c.8 0 1.4-.2 1.9-.6.5-.4.7-1 .7-1.7 0-.8-.2-1.3-.7-1.8-.5-.4-1.1-.6-1.9-.6h-4.6z" fill="#f34749"/>
</svg>