<svg xmlns="http://www.w3.org/2000/svg" viewBox="0 0 32 32" width="32" height="32" fill="none">
  <!-- Dark rounded square background -->
  <rect width="32" height="32" rx="6" fill="#161616"/>
  <!-- Bold "B" letterform -->
  <path d="M8.5 6h8.2c2 0 3.5.5 4.5 1.5s1.5 2.2 1.5 3.6c0 1.1-.3 2.1-1 2.9-.6.8-1.4 1.3-2.3 1.5v.1c1.2.2 2.1.8 2.8 1.6.6.9 1 1.9 1 3.2 0 1.7-.6 3.1-1.8 4.1-1.2.9-2.8 1.4-4.8 1.4H8.5V6zm3.2 7.5h5.2c1 0 1.8-.3 2.3-.8.6-.5.8-1.2.8-2s-.3-1.5-.8-2c-.5-.4-1.3-.7-2.3-.7h-5.2v5.5zm0 2.7v6.1h5.8c1.1 0 1.9-.3 2.5-.8.6-.6.9-1.3.9-2.3 0-1-.3-1.8-.9-2.3-.6-.5-1.5-.7-2.5-.7h-5.8z" fill="#f34749"/>
</svg>