<svg xmlns="http://www.w3.org/2000/svg" viewBox="0 0 800 1000" fill="none" stroke="#f34749" stroke-width="0.75" stroke-linecap="round" stroke-linejoin="round" opacity="0.07">
  <!-- Heraldic Rampant Lion - Line Art Background Watermark -->

  <!-- Main body outline -->
  <path d="M420,680 C415,650 405,620 400,590 C395,560 392,530 395,500 C398,470 405,445 415,420 C425,395 430,375 428,355 C426,335 420,318 412,305"/>

  <!-- Torso and belly -->
  <path d="M412,305 C400,285 395,270 398,250 C401,230 410,215 425,205 C440,195 450,190 455,185"/>
  <path d="M395,500 C380,510 365,525 355,545 C345,565 340,585 342,605 C344,625 350,640 360,655 C370,670 382,678 395,682"/>

  <!-- Rear left leg (standing, weight-bearing) -->
  <path d="M420,680 C425,700 428,720 430,740 C432,760 430,780 425,800 C420,820 418,840 420,855 C422,870 428,882 438,888"/>
  <path d="M438,888 C445,892 450,890 452,884 C454,878 452,870 448,862"/>
  <!-- Rear leg claws -->
  <path d="M438,888 L432,898 L440,894"/>
  <path d="M442,890 L438,900 L446,896"/>
  <path d="M448,889 L446,899 L452,894"/>

  <!-- Rear right leg (slightly forward, also weight-bearing) -->
  <path d="M395,682 C388,700 382,720 378,742 C374,764 372,784 374,800 C376,816 380,832 386,845 C392,858 400,866 410,870"/>
  <path d="M410,870 C418,874 422,872 424,866 C426,860 424,852 418,844"/>
  <!-- Rear right leg claws -->
  <path d="M410,870 L404,880 L412,876"/>
  <path d="M414,872 L410,882 L418,878"/>
  <path d="M420,871 L418,881 L424,876"/>

  <!-- Rear haunch detail -->
  <path d="M420,680 C440,670 455,658 462,640 C469,622 468,605 460,590"/>
  <path d="M395,682 C400,695 410,700 420,698"/>

  <!-- Front left leg (raised high, paw forward) -->
  <path d="M455,185 C465,175 478,168 490,165 C502,162 512,165 518,172 C524,179 525,188 522,198 C519,208 512,216 505,222"/>
  <path d="M505,222 C495,230 488,240 484,252 C480,264 478,275 480,285"/>
  <!-- Front left paw -->
  <path d="M480,285 C475,290 468,292 462,290 C456,288 452,283 450,276"/>
  <!-- Front left claws (extended, aggressive) -->
  <path d="M450,276 L440,268 L448,274"/>
  <path d="M452,280 L441,274 L450,278"/>
  <path d="M456,284 L444,280 L454,283"/>
  <path d="M462,290 L452,288 L460,289"/>

  <!-- Front right leg (raised, reaching forward) -->
  <path d="M412,305 C405,295 395,282 388,270 C381,258 376,245 374,232 C372,219 375,208 382,200 C389,192 398,188 408,190"/>
  <path d="M408,190 C418,192 425,198 428,208 C431,218 430,230 425,242"/>
  <!-- Front right paw reaching forward -->
  <path d="M425,242 C418,248 410,250 402,248"/>
  <path d="M402,248 C395,246 390,240 388,232"/>
  <!-- Front right claws -->
  <path d="M388,232 L378,224 L386,230"/>
  <path d="M390,236 L379,230 L388,234"/>
  <path d="M394,240 L382,236 L392,239"/>
  <path d="M398,246 L388,244 L396,245"/>

  <!-- Shoulder muscles -->
  <path d="M428,355 C438,345 448,332 452,318 C456,304 454,292 448,282 C442,272 434,268 425,270"/>
  <path d="M415,420 C430,410 442,398 448,382 C454,366 452,352 445,342"/>

  <!-- Neck -->
  <path d="M455,185 C460,178 462,168 460,158 C458,148 452,140 445,135 C438,130 430,128 422,130"/>
  <path d="M412,305 C418,295 425,282 428,268 C431,254 430,240 425,228"/>

  <!-- Head outline -->
  <path d="M422,130 C414,132 406,138 400,146 C394,154 390,164 388,175 C386,186 388,196 392,204 C396,212 402,218 410,220"/>
  <path d="M410,220 C418,222 426,220 432,215 C438,210 442,202 444,192 C446,182 445,172 442,164"/>

  <!-- Snout / jaw (open mouth, roaring) -->
  <path d="M388,175 C380,172 372,168 365,162 C358,156 352,150 348,144 C344,138 342,132 344,128"/>
  <path d="M392,204 C384,208 375,210 366,208 C357,206 350,200 345,192 C340,184 338,176 340,168 C342,160 346,154 352,150"/>
  <!-- Upper jaw -->
  <path d="M344,128 C346,122 352,118 360,118 C368,118 375,122 380,128 C385,134 388,142 388,150"/>
  <!-- Lower jaw -->
  <path d="M345,192 C342,198 342,204 346,208 C350,212 356,214 362,212"/>
  <!-- Teeth -->
  <path d="M352,150 L348,142 L354,148"/>
  <path d="M358,148 L355,138 L360,146"/>
  <path d="M365,148 L363,140 L367,146"/>
  <!-- Lower teeth -->
  <path d="M350,186 L347,194 L353,188"/>
  <path d="M358,184 L356,192 L360,186"/>
  <!-- Tongue -->
  <path d="M352,168 C356,174 362,178 368,176 C372,174 374,170 372,165"/>

  <!-- Eye -->
  <circle cx="405" cy="152" r="5"/>
  <circle cx="405" cy="152" r="2.5"/>
  <!-- Brow ridge -->
  <path d="M398,145 C402,142 408,141 414,143"/>

  <!-- Nose -->
  <path d="M348,134 C346,130 348,126 352,126 C356,126 358,130 356,134"/>

  <!-- Ear -->
  <path d="M430,125 C435,118 438,110 436,102 C434,94 428,90 422,92 C416,94 414,100 416,108 C418,116 422,124 428,130"/>

  <!-- Mane - flowing, detailed, heraldic style -->
  <!-- Top of mane -->
  <path d="M422,130 C428,120 436,112 440,102 C444,92 442,82 436,76 C430,70 422,68 414,72 C406,76 400,84 398,94 C396,104 398,114 404,122"/>

  <!-- Mane flowing down neck - left side -->
  <path d="M398,94 C390,98 382,105 378,115 C374,125 374,136 378,145 C382,154 388,160 395,162"/>
  <path d="M378,115 C370,120 364,128 362,138 C360,148 362,158 368,165"/>
  <path d="M374,136 C366,142 360,152 358,164 C356,176 360,186 368,192"/>

  <!-- Mane flowing down neck - right side -->
  <path d="M440,102 C448,108 454,118 456,130 C458,142 456,154 450,164"/>
  <path d="M450,164 C446,172 440,178 434,180"/>
  <path d="M456,130 C462,138 466,148 466,160 C466,172 462,182 456,188"/>

  <!-- Mane tufts and curls -->
  <path d="M414,72 C408,65 400,62 392,64 C384,66 380,74 382,82 C384,90 390,96 398,94"/>
  <path d="M436,76 C440,68 438,60 432,56 C426,52 418,54 414,60 C410,66 412,74 418,78"/>
  <path d="M392,64 C386,58 378,56 372,60 C366,64 366,72 370,80 C374,88 380,92 386,92"/>
  <path d="M370,80 C364,86 360,94 362,104 C364,114 370,120 378,122"/>

  <!-- Mane chest/breast fur -->
  <path d="M456,188 C462,196 464,208 460,220 C456,232 448,240 440,244"/>
  <path d="M440,244 C432,248 424,248 418,244 C412,240 410,232 412,224"/>
  <path d="M460,220 C466,228 468,240 465,252 C462,264 456,272 448,276"/>
  <path d="M465,252 C468,264 466,278 460,290 C454,302 446,310 436,314"/>

  <!-- Additional mane detail lines -->
  <path d="M404,122 C398,128 394,136 394,146"/>
  <path d="M418,78 C424,84 428,92 430,102"/>
  <path d="M386,92 C382,100 380,110 382,120"/>
  <path d="M434,180 C438,190 440,202 438,214"/>

  <!-- Tail - curling upward in classic heraldic style -->
  <path d="M462,640 C472,628 484,618 498,612 C512,606 526,604 538,608 C550,612 558,620 562,632"/>
  <path d="M562,632 C566,644 564,658 558,670 C552,682 542,690 530,694 C518,698 506,696 496,688"/>
  <path d="M496,688 C486,680 480,668 478,654 C476,640 480,628 488,618"/>

  <!-- Tail curling tip -->
  <path d="M530,694 C538,700 548,702 556,698 C564,694 568,686 568,676 C568,666 564,658 558,654"/>
  <path d="M558,654 C552,650 544,648 536,650 C528,652 522,658 520,666"/>
  <path d="M520,666 C518,674 520,682 526,688"/>

  <!-- Tail tuft at end -->
  <path d="M556,698 C562,706 570,710 578,708 C586,706 590,698 588,690 C586,682 580,678 574,680"/>
  <path d="M578,708 C584,714 592,716 598,712 C604,708 606,700 602,694 C598,688 592,686 586,688"/>
  <path d="M598,712 C602,718 600,726 594,730 C588,734 580,732 576,726 C572,720 574,712 580,708"/>

  <!-- Tail detail lines -->
  <path d="M498,612 C506,608 516,608 526,612"/>
  <path d="M538,608 C546,614 552,624 554,636"/>
  <path d="M496,688 C492,678 490,666 492,654"/>

  <!-- Body fur texture lines -->
  <path d="M405,450 C410,440 418,432 428,428"/>
  <path d="M400,480 C406,472 414,466 424,462"/>
  <path d="M398,510 C404,502 412,496 422,492"/>
  <path d="M395,540 C402,532 410,526 420,522"/>
  <path d="M393,570 C400,562 408,556 418,552"/>
  <path d="M400,600 C406,592 414,586 424,582"/>
  <path d="M408,630 C414,622 420,616 428,612"/>

  <!-- Chest/belly fur texture -->
  <path d="M360,560 C365,552 372,546 380,542"/>
  <path d="M348,580 C354,572 362,566 370,562"/>
  <path d="M345,600 C352,592 360,586 368,582"/>
  <path d="M348,620 C355,612 362,606 370,602"/>

  <!-- Shoulder muscle lines -->
  <path d="M435,360 C442,352 446,342 448,330"/>
  <path d="M430,380 C438,372 444,362 446,350"/>
  <path d="M425,400 C434,392 440,382 442,370"/>

  <!-- Haunch muscle lines -->
  <path d="M440,660 C448,652 454,642 456,630"/>
  <path d="M435,670 C444,662 450,652 452,640"/>
  <path d="M430,678 C438,672 446,664 450,654"/>

  <!-- Knee details rear legs -->
  <path d="M425,790 C430,786 432,780 430,774"/>
  <path d="M378,790 C374,786 372,780 374,774"/>

  <!-- Decorative crown/coronet (optional heraldic element) -->
  <path d="M390,68 C388,58 392,48 400,42 C408,36 418,34 426,38 C434,42 438,50 436,60"/>
  <path d="M400,42 L398,28 L404,38"/>
  <path d="M413,36 L413,22 L416,34"/>
  <path d="M426,38 L428,26 L422,36"/>
  <!-- Crown band -->
  <path d="M390,68 C396,64 404,62 413,62 C422,62 430,64 436,68"/>
  <!-- Crown jewel dots -->
  <circle cx="398" cy="56" r="2"/>
  <circle cx="413" cy="52" r="2.5"/>
  <circle cx="428" cy="56" r="2"/>
</svg>